# xmcd
#
# Track frame offsets:
#	150
#	19348
#	39605
#	59318
#	78756
#	96269
#	115620
#	134536
#	156675
#	178543
#	199649
#	221253
#	239641
#	258337
#	277415
#	291788
#	317507
#
# Disc length: 4544 seconds
#
# Revision: 1
# Processed by: cddbd v1.5.2PL0 Copyright (c) Steve Scherf et al.
# Submitted via: audiograbber 1.83.01
#
DISCID=fc11be11
DTITLE=Various Artist - The very Best of Jazz Vol 2 CD 1
DYEAR=2002
DGENRE=Jazz
TTITLE0=The Blackbyrds - Walking in Rhythm
TTITLE1=Pieces of a Dream - Turning it up
TTITLE2=Trina Broussard - Sailing
TTITLE3=Dave Koz - You make me smile
TTITLE4=Tower of Power - Soothe you
TTITLE5=Warren Hill - Fallen
TTITLE6=Earth, Wind and Fire - Got to get you into my life
TTITLE7=Jeff Kashiwa - 3-Day Weekend
TTITLE8=Bebe and Cece Winans - Stay with me
TTITLE9=Peter White - Bullseye
TTITLE10=Barry White - Just the Way you are
TTITLE11=Braxton Brothers - Just believe
TTITLE12=Incognito - Don't you worry 'bout a thing
TTITLE13=Marion Meadows - Don't wanna know
TTITLE14=Edie Brickell - Good Times
TTITLE15=Regina Belle - Baby come to me
TTITLE16=Pete Belasco - Hurry Hurry
EXTD=YEAR: 2002
EXTT0=
EXTT1=
EXTT2=
EXTT3=
EXTT4=
EXTT5=
EXTT6=
EXTT7=
EXTT8=
EXTT9=
EXTT10=
EXTT11=
EXTT12=
EXTT13=
EXTT14=
EXTT15=
EXTT16=
PLAYORDER=
